<svg xmlns="http://www.w3.org/2000/svg" viewBox="0 0 512 512">
  <defs>
    <radialGradient id="bg" cx="35%" cy="25%" r="90%">
      <stop offset="0" stop-color="#174778"/>
      <stop offset=".5" stop-color="#081a3b"/>
      <stop offset="1" stop-color="#020713"/>
    </radialGradient>
    <linearGradient id="planet" x1="0" y1="0" x2="1" y2="1">
      <stop stop-color="#95ffd8"/>
      <stop offset=".48" stop-color="#20b6a3"/>
      <stop offset="1" stop-color="#106083"/>
    </linearGradient>
    <linearGradient id="shield" x1="0" y1="0" x2="0" y2="1">
      <stop stop-color="#69e9ff"/>
      <stop offset="1" stop-color="#2581dc"/>
    </linearGradient>
    <filter id="glow"><feGaussianBlur stdDeviation="9" result="b"/><feMerge><feMergeNode in="b"/><feMergeNode in="SourceGraphic"/></feMerge></filter>
  </defs>
  <rect width="512" height="512" rx="112" fill="url(#bg)"/>
  <circle cx="255" cy="270" r="151" fill="#45d8ff" opacity=".15" filter="url(#glow)"/>
  <circle cx="255" cy="270" r="128" fill="url(#planet)"/>
  <path d="M146 248c39-20 69-16 97 2 34 21 76 23 122 0-6-46-43-88-93-104-62-18-111 30-126 102Z" fill="#d5ff8e" opacity=".78"/>
  <path d="M179 340c43-22 91-12 137 13-25 28-63 45-103 40-26-4-45-22-34-53Z" fill="#0b6978" opacity=".7"/>
  <path d="M256 74 376 123v101c0 89-50 163-120 197-70-34-120-108-120-197V123Z" fill="none" stroke="url(#shield)" stroke-width="24" filter="url(#glow)"/>
  <path d="m197 260 39 40 81-88" fill="none" stroke="#fff4b5" stroke-width="28" stroke-linecap="round" stroke-linejoin="round"/>
  <circle cx="414" cy="102" r="16" fill="#ffce61"/>
  <circle cx="92" cy="160" r="9" fill="#72eaff"/>
</svg>
